<svg width="24" height="24" viewBox="0 0 24 24" fill="none" xmlns="http://www.w3.org/2000/svg">
<path d="M22.5011 12.2332C22.5011 11.3699 22.4296 10.7399 22.2749 10.0866H12.2154V13.9832H18.1201C18.0011 14.9516 17.3582 16.4099 15.9296 17.3899L15.9096 17.5203L19.0902 19.935L19.3106 19.9566C21.3344 18.1249 22.5011 15.4299 22.5011 12.2332Z" fill="#4285F4"/>
<path d="M12.2146 22.5C15.1075 22.5 17.536 21.5666 19.3098 19.9567L15.9289 17.3899C15.0242 18.0083 13.8098 18.4399 12.2146 18.4399C9.38134 18.4399 6.97661 16.6083 6.11939 14.0766L5.99374 14.0871L2.68648 16.5954L2.64323 16.7133C4.40511 20.1433 8.02415 22.5 12.2146 22.5Z" fill="#34A853"/>
<path d="M6.12005 14.0767C5.89387 13.4233 5.76297 12.7233 5.76297 12C5.76297 11.2766 5.89387 10.5766 6.10815 9.92331L6.10216 9.78417L2.75345 7.23554L2.64389 7.28661C1.91773 8.70996 1.50106 10.3083 1.50106 12C1.50106 13.6917 1.91773 15.2899 2.64389 16.7133L6.12005 14.0767Z" fill="#FBBC05"/>
<path d="M12.2147 5.55998C14.2266 5.55998 15.5837 6.41165 16.3575 7.12336L19.3813 4.23001C17.5243 2.53835 15.1075 1.50001 12.2147 1.50001C8.02418 1.50001 4.40512 3.85666 2.64323 7.28663L6.10751 9.92333C6.97663 7.39167 9.38138 5.55998 12.2147 5.55998Z" fill="#EB4335"/>
</svg>
