<svg width="79" height="79" viewBox="0 0 79 79" fill="none" xmlns="http://www.w3.org/2000/svg">
<rect width="79" height="79" rx="4" fill="#1A1A1A"/>
<path d="M46.2814 36.5811L56.4462 0H75C77.2091 0 79 1.79086 79 4V75C79 77.2091 77.2091 79 75 79H47.1297L53.4647 41.4492C53.6706 40.229 52.7301 39.1165 51.4926 39.1165H48.2084C46.8857 39.1165 45.9273 37.8555 46.2814 36.5811Z" fill="#1A9334"/>
<path d="M34.0592 28.2295L23.2512 37.8023C22.8864 38.1254 22.8694 38.689 23.2139 39.0336C25.1198 40.9395 28.1832 41.023 30.1901 39.2237L35.9691 34.0425C36.6851 33.4005 37.7781 33.4303 38.4581 34.1103L45.317 40.9692C46.0186 41.6708 46.9701 42.0649 47.9623 42.0649C48.8553 42.0649 49.7189 41.7455 50.3969 41.1643L61.3601 31.7673C61.8024 31.3882 61.8283 30.7128 61.4164 30.3009L60.1633 29.0478C58.9538 28.2781 57.3912 28.3519 56.2596 29.232L49.4889 34.4981C48.7716 35.056 47.7562 35.014 47.0875 34.3988L40.4474 28.2899C39.5675 27.4803 38.4155 27.031 37.2199 27.031C36.0553 27.031 34.931 27.4574 34.0592 28.2295Z" fill="white"/>
<path d="M33.801 40.9603L17.6345 55.1867C17.1654 55.5995 17.2087 56.3431 17.7224 56.6988C19.9231 58.2223 22.8827 58.0318 24.8698 56.2385L35.7689 46.4028C36.1793 46.0324 36.8124 46.0653 37.1822 46.4762L43.1126 53.0655L41.9071 54.4432C41.1627 55.294 41.2708 56.5922 42.1458 57.3081L43.1784 58.153C43.9737 58.8036 45.1326 58.7458 45.8591 58.0193L49.1307 54.7476C49.8721 54.0063 49.9151 52.8182 49.2292 52.0251L40.0265 41.3845C39.192 40.4196 37.9792 39.865 36.7035 39.865C35.635 39.865 34.6031 40.2544 33.801 40.9603Z" fill="white"/>
<circle cx="48.246" cy="23.3643" r="5.13353" fill="white"/>
</svg>
